<svg width="62" height="62" viewBox="0 0 62 62" fill="none" xmlns="http://www.w3.org/2000/svg">
<path d="M52.6516 28.0938L48.4375 23.8826V13.5625C48.4375 11.9641 47.1297 10.6562 45.5312 10.6562H42.625C41.0266 10.6562 39.7188 11.9641 39.7188 13.5625V15.1697L33.9062 9.36297C33.1128 8.61316 32.3863 7.75 31 7.75C29.6137 7.75 28.8872 8.61316 28.0938 9.36297L9.34844 28.0938C8.44169 29.0383 7.75 29.7271 7.75 31C7.75 32.6362 9.0055 33.9062 10.6562 33.9062H13.5625V51.3438C13.5625 52.9422 14.8703 54.25 16.4688 54.25H22.2812C23.8863 54.25 25.1875 52.9488 25.1875 51.3438V39.7188C25.1875 38.1203 26.4953 36.8125 28.0938 36.8125H33.9062C35.5047 36.8125 36.8125 38.1203 36.8125 39.7188V51.3438C36.8125 52.9488 36.6605 54.25 38.2656 54.25H45.5312C47.1297 54.25 48.4375 52.9422 48.4375 51.3438V33.9062H51.3438C52.9945 33.9062 54.25 32.6362 54.25 31C54.25 29.7271 53.5583 29.0383 52.6516 28.0938Z" stroke="white" stroke-width="4" stroke-linejoin="round"/>
</svg>
