<svg width="56" height="56" viewBox="0 0 56 56" fill="none" xmlns="http://www.w3.org/2000/svg">
<path d="M21.1318 49V24.3893C21.1318 23.837 21.5795 23.3893 22.1318 23.3893H34.2677C34.82 23.3893 35.2677 23.837 35.2677 24.3893V49M21.1318 49L21.1356 37.587C21.1358 37.0346 20.688 36.5867 20.1356 36.5867H8C7.44772 36.5867 7 37.0344 7 37.5867V48C7 48.5523 7.44771 49 8 49H21.1318ZM21.1318 49H35.2677M35.2677 49V8C35.2677 7.44772 35.7154 7 36.2677 7H48C48.5523 7 49 7.44772 49 8V48C49 48.5523 48.5523 49 48 49H35.2677Z" stroke="white" stroke-width="2" stroke-linecap="round" stroke-linejoin="round"/>
</svg>
