<svg width="60" height="60" viewBox="0 0 60 60" fill="none" xmlns="http://www.w3.org/2000/svg">
<path d="M12.4996 27.5C12.4996 16.4543 21.4531 7.5 32.4979 7.5C43.5427 7.5 52.4962 16.4543 52.4962 27.5C52.4962 30.3751 51.8896 33.1084 50.7974 35.5791L52.5 47.4981L42.2864 44.9445C39.393 46.5718 36.0539 47.5 32.4979 47.5M7.50237 40C7.50237 41.7969 7.88146 43.5053 8.56401 45.0494L7.5 52.4988L13.8829 50.9028C15.6911 51.9199 17.7779 52.5 20.0001 52.5C26.9025 52.5 32.4979 46.9036 32.4979 40C32.4979 33.0964 26.9025 27.5 20.0001 27.5C13.0978 27.5 7.50237 33.0964 7.50237 40Z" stroke="white" stroke-width="4" stroke-linecap="round" stroke-linejoin="round"/>
</svg>
